<svg width="1024" height="1024" viewBox="0 0 1024 1024" fill="none" xmlns="http://www.w3.org/2000/svg">
<path fill-rule="evenodd" clip-rule="evenodd" d="M742.75 96C803.816 96 862.381 120.349 905.561 163.691C948.742 207.033 973 265.817 973 327.111V696.889C973 758.183 948.742 816.967 905.561 860.309C862.381 903.651 803.816 928 742.75 928H98.05C85.8368 928 74.1238 923.13 65.4877 914.462C56.8517 905.793 52 894.037 52 881.778V327.111C52 265.817 76.2584 207.033 119.439 163.691C162.619 120.349 221.184 96 282.25 96H742.75ZM374.35 419.556C363.071 419.557 352.184 423.714 343.756 431.237C335.327 438.76 329.942 449.126 328.622 460.37L328.3 465.778V558.222C328.313 570.003 332.807 581.335 340.865 589.901C348.922 598.468 359.934 603.623 371.651 604.314C383.368 605.004 394.906 601.178 403.906 593.616C412.907 586.055 418.691 575.329 420.078 563.63L420.4 558.222V465.778C420.4 453.519 415.548 441.762 406.912 433.094C398.276 424.425 386.563 419.556 374.35 419.556ZM650.65 419.556C638.437 419.556 626.724 424.425 618.088 433.094C609.452 441.762 604.6 453.519 604.6 465.778V558.222C604.6 570.481 609.452 582.238 618.088 590.906C626.724 599.575 638.437 604.444 650.65 604.444C662.863 604.444 674.576 599.575 683.212 590.906C691.848 582.238 696.7 570.481 696.7 558.222V465.778C696.7 453.519 691.848 441.762 683.212 433.094C674.576 424.425 662.863 419.556 650.65 419.556Z" fill="#00A3FF"/>
</svg>
